<?xml version="1.0" standalone="no"?>
<!DOCTYPE svg PUBLIC "-//W3C//DTD SVG 20010904//EN"
 "http://www.w3.org/TR/2001/REC-SVG-20010904/DTD/svg10.dtd">
<svg version="1.0" xmlns="http://www.w3.org/2000/svg"
 width="1024.000000pt" height="1024.000000pt" viewBox="0 0 1024.000000 1024.000000"
 preserveAspectRatio="xMidYMid meet">
<metadata>
Created by potrace 1.14, written by Peter Selinger 2001-2017
</metadata>
<g transform="translate(0.000000,1024.000000) scale(0.100000,-0.100000)"
fill="#000000" stroke="none">
<path d="M4805 10233 c-1778 -114 -3356 -1128 -4202 -2698 -341 -632 -541
-1337 -594 -2090 -15 -213 -7 -644 16 -855 147 -1375 826 -2612 1906 -3476
819 -655 1791 -1030 2864 -1105 213 -15 644 -7 855 16 1375 147 2612 826 3476
1906 655 819 1030 1791 1105 2864 15 213 7 644 -16 855 -147 1375 -826 2612
-1906 3476 -813 650 -1784 1027 -2844 1104 -127 9 -537 11 -660 3z m-350 -893
c443 -37 825 -268 1067 -646 77 -120 144 -292 180 -457 31 -146 31 -390 0
-534 -121 -560 -521 -962 -1080 -1085 -129 -29 -394 -31 -524 -5 -561 112
-980 528 -1099 1090 -29 137 -31 370 -5 507 56 286 181 525 381 726 117 118
211 186 355 259 166 83 330 130 505 145 49 4 92 8 95 8 3 1 59 -3 125 -8z
m3772 -2109 c274 -53 511 -179 709 -376 118 -118 186 -211 259 -355 86 -173
129 -324 144 -510 34 -415 -122 -822 -422 -1106 -193 -183 -415 -299 -680
-356 -146 -31 -390 -31 -534 0 -561 121 -962 520 -1085 1080 -17 77 -22 132
-22 267 -1 246 33 392 139 610 271 558 883 864 1492 746z m-3007 -1412 c161
-26 277 -86 400 -209 69 -68 94 -102 127 -170 92 -188 105 -372 38 -563 -36
-104 -81 -173 -175 -267 -68 -69 -102 -94 -170 -127 -189 -93 -371 -105 -563
-38 -104 36 -173 81 -267 175 -69 68 -94 102 -127 170 -93 189 -105 371 -38
563 35 102 81 173 170 263 163 165 384 239 605 203z m-2693 -118 c424 -87 773
-352 963 -731 104 -207 144 -380 144 -620 0 -187 -14 -280 -71 -445 -163 -475
-567 -820 -1063 -912 -128 -23 -352 -22 -480 2 -286 54 -525 180 -730 385
-119 118 -188 214 -259 357 -147 296 -183 620 -106 941 121 504 529 904 1036
1016 181 41 388 43 566 7z m3628 -2090 c559 -121 980 -554 1081 -1111 24 -129
23 -353 -1 -480 -54 -286 -181 -527 -385 -730 -119 -119 -213 -187 -356 -258
-232 -115 -478 -163 -726 -141 -348 30 -654 178 -891 429 -180 191 -292 408
-349 673 -31 146 -31 390 0 534 104 483 422 856 874 1027 71 26 223 63 313 76
95 14 338 3 440 -19z"/>
</g>
</svg>
